<mxfile host="app.diagrams.net" modified="2020-06-04T09:20:24.948Z" agent="5.0 (Windows NT 10.0; Win64; x64) AppleWebKit/537.36 (KHTML, like Gecko) Chrome/83.0.4103.61 Safari/537.36" etag="3uxB68UcOcanU8j9ok1y" version="13.0.9" type="github">
  <diagram id="C5RBs43oDa-KdzZeNtuy" name="Page-1">
    <mxGraphModel dx="1422" dy="745" grid="1" gridSize="10" guides="1" tooltips="1" connect="1" arrows="1" fold="1" page="1" pageScale="1" pageWidth="827" pageHeight="1169" math="0" shadow="0">
      <root>
        <mxCell id="WIyWlLk6GJQsqaUBKTNV-0" />
        <mxCell id="WIyWlLk6GJQsqaUBKTNV-1" parent="WIyWlLk6GJQsqaUBKTNV-0" />
        <mxCell id="U6ba7_Z07eGMT3TW1Dq--0" value="编译打包" style="edgeStyle=orthogonalEdgeStyle;rounded=0;orthogonalLoop=1;jettySize=auto;html=1;exitX=0.5;exitY=1;exitDx=0;exitDy=0;entryX=0.5;entryY=0;entryDx=0;entryDy=0;endArrow=block;endFill=0;fontSize=12;exitPerimeter=0;" edge="1" parent="WIyWlLk6GJQsqaUBKTNV-1" source="U6ba7_Z07eGMT3TW1Dq--1" target="U6ba7_Z07eGMT3TW1Dq--3">
          <mxGeometry y="28" relative="1" as="geometry">
            <Array as="points">
              <mxPoint x="353" y="310" />
              <mxPoint x="353" y="310" />
            </Array>
            <mxPoint as="offset" />
          </mxGeometry>
        </mxCell>
        <mxCell id="U6ba7_Z07eGMT3TW1Dq--1" value="&amp;nbsp; XXFA工程" style="rounded=1;whiteSpace=wrap;html=1;fontSize=12;glass=0;strokeWidth=1;shadow=0;align=left;verticalAlign=top;" vertex="1" parent="WIyWlLk6GJQsqaUBKTNV-1">
          <mxGeometry x="165" y="200" width="375" height="80" as="geometry" />
        </mxCell>
        <mxCell id="U6ba7_Z07eGMT3TW1Dq--3" value="&amp;nbsp; XXFA" style="rounded=1;whiteSpace=wrap;html=1;fontSize=12;glass=0;strokeWidth=1;shadow=0;align=left;verticalAlign=top;" vertex="1" parent="WIyWlLk6GJQsqaUBKTNV-1">
          <mxGeometry x="165" y="340" width="375" height="80" as="geometry" />
        </mxCell>
        <mxCell id="U6ba7_Z07eGMT3TW1Dq--7" value="&lt;font&gt;&lt;b&gt;IDE开发阶段&lt;/b&gt;&lt;br&gt;&lt;font style=&quot;font-size: 11px&quot;&gt;（调试/预览）&lt;/font&gt;&lt;br&gt;&lt;/font&gt;" style="text;html=1;strokeColor=none;fillColor=none;align=center;verticalAlign=middle;whiteSpace=wrap;rounded=0;fontSize=15;" vertex="1" parent="WIyWlLk6GJQsqaUBKTNV-1">
          <mxGeometry x="35" y="215" width="90" height="40" as="geometry" />
        </mxCell>
        <mxCell id="U6ba7_Z07eGMT3TW1Dq--8" value="FA业务代码" style="rounded=1;whiteSpace=wrap;html=1;align=center;fillColor=#b1ddf0;strokeColor=#10739e;" vertex="1" parent="WIyWlLk6GJQsqaUBKTNV-1">
          <mxGeometry x="176" y="228" width="85" height="40" as="geometry" />
        </mxCell>
        <mxCell id="U6ba7_Z07eGMT3TW1Dq--9" value="AA/FA&lt;br&gt;依赖配置文件" style="rounded=1;whiteSpace=wrap;html=1;align=center;fillColor=#b0e3e6;strokeColor=#0e8088;" vertex="1" parent="WIyWlLk6GJQsqaUBKTNV-1">
          <mxGeometry x="271" y="228" width="100" height="40" as="geometry" />
        </mxCell>
        <mxCell id="U6ba7_Z07eGMT3TW1Dq--10" value="AA/FA" style="rounded=1;whiteSpace=wrap;html=1;align=center;fillColor=#ffe6cc;strokeColor=#d79b00;" vertex="1" parent="WIyWlLk6GJQsqaUBKTNV-1">
          <mxGeometry x="451" y="228" width="70" height="40" as="geometry" />
        </mxCell>
        <mxCell id="U6ba7_Z07eGMT3TW1Dq--11" value="&lt;font style=&quot;font-size: 21px&quot;&gt;......&lt;/font&gt;" style="rounded=1;whiteSpace=wrap;html=1;align=center;fillColor=none;gradientColor=none;strokeColor=none;" vertex="1" parent="WIyWlLk6GJQsqaUBKTNV-1">
          <mxGeometry x="385" y="228" width="50" height="40" as="geometry" />
        </mxCell>
        <mxCell id="U6ba7_Z07eGMT3TW1Dq--12" value="FA业务代码" style="rounded=1;whiteSpace=wrap;html=1;align=center;fillColor=#b1ddf0;strokeColor=#10739e;" vertex="1" parent="WIyWlLk6GJQsqaUBKTNV-1">
          <mxGeometry x="176" y="370" width="86" height="40" as="geometry" />
        </mxCell>
        <mxCell id="U6ba7_Z07eGMT3TW1Dq--13" value="AA/FA&lt;br&gt;依赖配置文件" style="rounded=1;whiteSpace=wrap;html=1;align=center;fillColor=#b0e3e6;strokeColor=#0e8088;" vertex="1" parent="WIyWlLk6GJQsqaUBKTNV-1">
          <mxGeometry x="271" y="370" width="100" height="40" as="geometry" />
        </mxCell>
        <mxCell id="U6ba7_Z07eGMT3TW1Dq--14" value="&lt;font style=&quot;font-size: 21px&quot;&gt;......&lt;/font&gt;" style="rounded=1;whiteSpace=wrap;html=1;align=center;fillColor=none;gradientColor=none;strokeColor=none;" vertex="1" parent="WIyWlLk6GJQsqaUBKTNV-1">
          <mxGeometry x="385" y="370" width="50" height="40" as="geometry" />
        </mxCell>
        <mxCell id="U6ba7_Z07eGMT3TW1Dq--17" value="&amp;nbsp; AA/FA应用市场" style="rounded=1;whiteSpace=wrap;html=1;fontSize=12;glass=0;strokeWidth=1;shadow=0;align=left;verticalAlign=top;" vertex="1" parent="WIyWlLk6GJQsqaUBKTNV-1">
          <mxGeometry x="650" y="198" width="110" height="362" as="geometry" />
        </mxCell>
        <mxCell id="U6ba7_Z07eGMT3TW1Dq--45" style="edgeStyle=orthogonalEdgeStyle;rounded=0;orthogonalLoop=1;jettySize=auto;html=1;exitX=0;exitY=0.5;exitDx=0;exitDy=0;entryX=1;entryY=0.5;entryDx=0;entryDy=0;endArrow=block;endFill=0;" edge="1" parent="WIyWlLk6GJQsqaUBKTNV-1" source="U6ba7_Z07eGMT3TW1Dq--18" target="U6ba7_Z07eGMT3TW1Dq--10">
          <mxGeometry relative="1" as="geometry" />
        </mxCell>
        <mxCell id="U6ba7_Z07eGMT3TW1Dq--46" value="依赖下载" style="edgeLabel;html=1;align=center;verticalAlign=middle;resizable=0;points=[];" vertex="1" connectable="0" parent="U6ba7_Z07eGMT3TW1Dq--45">
          <mxGeometry x="-0.272" relative="1" as="geometry">
            <mxPoint x="-13.25" y="-15" as="offset" />
          </mxGeometry>
        </mxCell>
        <mxCell id="U6ba7_Z07eGMT3TW1Dq--18" value="AA/FA" style="rounded=1;whiteSpace=wrap;html=1;align=center;fillColor=#ffe6cc;strokeColor=#d79b00;" vertex="1" parent="WIyWlLk6GJQsqaUBKTNV-1">
          <mxGeometry x="663.25" y="228" width="83.5" height="40" as="geometry" />
        </mxCell>
        <mxCell id="U6ba7_Z07eGMT3TW1Dq--19" value="&lt;font style=&quot;font-size: 21px&quot;&gt;......&lt;/font&gt;" style="rounded=1;whiteSpace=wrap;html=1;align=center;fillColor=none;gradientColor=none;strokeColor=none;horizontal=0;verticalAlign=top;" vertex="1" parent="WIyWlLk6GJQsqaUBKTNV-1">
          <mxGeometry x="680" y="338" width="40" height="40" as="geometry" />
        </mxCell>
        <mxCell id="U6ba7_Z07eGMT3TW1Dq--20" value="scan" style="rounded=1;whiteSpace=wrap;html=1;align=center;" vertex="1" parent="WIyWlLk6GJQsqaUBKTNV-1">
          <mxGeometry x="663.25" y="288" width="83.5" height="40" as="geometry" />
        </mxCell>
        <mxCell id="U6ba7_Z07eGMT3TW1Dq--22" value="&lt;font style=&quot;font-size: 15px&quot;&gt;&lt;b&gt;IDE编译打包&lt;/b&gt;&lt;/font&gt;" style="text;html=1;strokeColor=none;fillColor=none;align=center;verticalAlign=middle;whiteSpace=wrap;rounded=0;fontSize=15;" vertex="1" parent="WIyWlLk6GJQsqaUBKTNV-1">
          <mxGeometry x="35" y="360" width="90" height="40" as="geometry" />
        </mxCell>
        <mxCell id="U6ba7_Z07eGMT3TW1Dq--24" value="应用运行" style="edgeStyle=orthogonalEdgeStyle;rounded=0;orthogonalLoop=1;jettySize=auto;html=1;exitX=0.5;exitY=1;exitDx=0;exitDy=0;entryX=0.5;entryY=0;entryDx=0;entryDy=0;endArrow=block;endFill=0;strokeWidth=1;fontSize=12;fontColor=#000000;" edge="1" parent="WIyWlLk6GJQsqaUBKTNV-1" source="U6ba7_Z07eGMT3TW1Dq--25" target="U6ba7_Z07eGMT3TW1Dq--31">
          <mxGeometry y="30" relative="1" as="geometry">
            <mxPoint as="offset" />
          </mxGeometry>
        </mxCell>
        <mxCell id="U6ba7_Z07eGMT3TW1Dq--25" value="&amp;nbsp; 智能设备（手机）" style="rounded=1;whiteSpace=wrap;html=1;fontSize=12;glass=0;strokeWidth=1;shadow=0;align=left;verticalAlign=top;" vertex="1" parent="WIyWlLk6GJQsqaUBKTNV-1">
          <mxGeometry x="165" y="640" width="345" height="80" as="geometry" />
        </mxCell>
        <mxCell id="U6ba7_Z07eGMT3TW1Dq--26" value="XXFA" style="rounded=1;whiteSpace=wrap;html=1;align=center;fillColor=#fad9d5;strokeColor=#ae4132;" vertex="1" parent="WIyWlLk6GJQsqaUBKTNV-1">
          <mxGeometry x="191.5" y="670" width="83.5" height="40" as="geometry" />
        </mxCell>
        <mxCell id="U6ba7_Z07eGMT3TW1Dq--27" value="&lt;font style=&quot;font-size: 21px&quot;&gt;......&lt;/font&gt;" style="rounded=1;whiteSpace=wrap;html=1;align=center;fillColor=none;gradientColor=none;strokeColor=none;" vertex="1" parent="WIyWlLk6GJQsqaUBKTNV-1">
          <mxGeometry x="290" y="670" width="50" height="40" as="geometry" />
        </mxCell>
        <mxCell id="U6ba7_Z07eGMT3TW1Dq--28" value="scan" style="rounded=1;whiteSpace=wrap;html=1;align=center;" vertex="1" parent="WIyWlLk6GJQsqaUBKTNV-1">
          <mxGeometry x="351.5" y="670" width="83.5" height="40" as="geometry" />
        </mxCell>
        <mxCell id="U6ba7_Z07eGMT3TW1Dq--30" value="&lt;b&gt;FA下载使用&lt;/b&gt;" style="text;html=1;strokeColor=none;fillColor=none;align=center;verticalAlign=middle;whiteSpace=wrap;rounded=0;fontSize=15;" vertex="1" parent="WIyWlLk6GJQsqaUBKTNV-1">
          <mxGeometry x="35" y="660" width="90" height="40" as="geometry" />
        </mxCell>
        <mxCell id="U6ba7_Z07eGMT3TW1Dq--31" value="&amp;nbsp; 智能设备（进程视角）" style="rounded=1;whiteSpace=wrap;html=1;fontSize=12;glass=0;strokeWidth=1;shadow=0;align=left;verticalAlign=top;" vertex="1" parent="WIyWlLk6GJQsqaUBKTNV-1">
          <mxGeometry x="165" y="780" width="440" height="160" as="geometry" />
        </mxCell>
        <mxCell id="U6ba7_Z07eGMT3TW1Dq--32" value="App业务代码" style="rounded=1;whiteSpace=wrap;html=1;align=center;fillColor=#b1ddf0;strokeColor=#10739e;" vertex="1" parent="WIyWlLk6GJQsqaUBKTNV-1">
          <mxGeometry x="210" y="833" width="98" height="40" as="geometry" />
        </mxCell>
        <mxCell id="U6ba7_Z07eGMT3TW1Dq--33" value="SDK依赖配置文件" style="rounded=1;whiteSpace=wrap;html=1;align=left;fillColor=#b0e3e6;strokeColor=#0e8088;" vertex="1" parent="WIyWlLk6GJQsqaUBKTNV-1">
          <mxGeometry x="329" y="833" width="100" height="40" as="geometry" />
        </mxCell>
        <mxCell id="U6ba7_Z07eGMT3TW1Dq--34" value="SDK包" style="rounded=1;whiteSpace=wrap;html=1;align=center;fillColor=#fad7ac;strokeColor=#b46504;" vertex="1" parent="WIyWlLk6GJQsqaUBKTNV-1">
          <mxGeometry x="498" y="833" width="70" height="40" as="geometry" />
        </mxCell>
        <mxCell id="U6ba7_Z07eGMT3TW1Dq--35" value="&lt;font style=&quot;font-size: 21px&quot;&gt;......&lt;/font&gt;" style="rounded=1;whiteSpace=wrap;html=1;align=center;fillColor=none;gradientColor=none;strokeColor=none;" vertex="1" parent="WIyWlLk6GJQsqaUBKTNV-1">
          <mxGeometry x="435" y="833" width="50" height="40" as="geometry" />
        </mxCell>
        <mxCell id="U6ba7_Z07eGMT3TW1Dq--36" value="&lt;b&gt;&lt;font color=&quot;#ff9999&quot;&gt;&amp;nbsp; xx app应用进程&lt;/font&gt;&lt;/b&gt;" style="rounded=1;whiteSpace=wrap;html=1;fillColor=none;gradientColor=none;fontSize=12;align=left;verticalAlign=top;strokeColor=#FF9999;strokeWidth=2;" vertex="1" parent="WIyWlLk6GJQsqaUBKTNV-1">
          <mxGeometry x="176" y="809" width="420" height="71" as="geometry" />
        </mxCell>
        <mxCell id="U6ba7_Z07eGMT3TW1Dq--37" value="&amp;nbsp; wechat应用进程" style="rounded=1;whiteSpace=wrap;html=1;fillColor=none;gradientColor=none;fontSize=12;align=left;" vertex="1" parent="WIyWlLk6GJQsqaUBKTNV-1">
          <mxGeometry x="176" y="888" width="419" height="42" as="geometry" />
        </mxCell>
        <mxCell id="U6ba7_Z07eGMT3TW1Dq--38" value="&lt;b&gt;应用运行&lt;br&gt;进程视角&lt;/b&gt;" style="text;html=1;strokeColor=none;fillColor=none;align=center;verticalAlign=middle;whiteSpace=wrap;rounded=0;fontSize=15;" vertex="1" parent="WIyWlLk6GJQsqaUBKTNV-1">
          <mxGeometry x="35" y="833" width="90" height="40" as="geometry" />
        </mxCell>
        <mxCell id="U6ba7_Z07eGMT3TW1Dq--51" value="XXFA" style="rounded=1;whiteSpace=wrap;html=1;align=center;dashed=1;fillColor=#f8cecc;strokeColor=#b85450;" vertex="1" parent="WIyWlLk6GJQsqaUBKTNV-1">
          <mxGeometry x="663.25" y="490" width="83.5" height="40" as="geometry" />
        </mxCell>
        <mxCell id="U6ba7_Z07eGMT3TW1Dq--53" style="edgeStyle=orthogonalEdgeStyle;rounded=0;orthogonalLoop=1;jettySize=auto;html=1;exitX=0.5;exitY=1;exitDx=0;exitDy=0;entryX=0;entryY=0.5;entryDx=0;entryDy=0;endArrow=block;endFill=0;" edge="1" parent="WIyWlLk6GJQsqaUBKTNV-1" source="U6ba7_Z07eGMT3TW1Dq--3" target="U6ba7_Z07eGMT3TW1Dq--51">
          <mxGeometry relative="1" as="geometry" />
        </mxCell>
        <mxCell id="U6ba7_Z07eGMT3TW1Dq--54" value="应用上架" style="edgeLabel;html=1;align=center;verticalAlign=middle;resizable=0;points=[];" vertex="1" connectable="0" parent="U6ba7_Z07eGMT3TW1Dq--53">
          <mxGeometry x="0.1404" relative="1" as="geometry">
            <mxPoint y="-10" as="offset" />
          </mxGeometry>
        </mxCell>
      </root>
    </mxGraphModel>
  </diagram>
</mxfile>
